<svg width="689" height="301" viewBox="0 0 689 301" fill="none" xmlns="http://www.w3.org/2000/svg">
<path fill-rule="evenodd" clip-rule="evenodd" d="M603.329 300.441C649.919 300.721 688.759 261.802 688.469 215.241V215.221C687.899 199.381 665.289 199.361 664.619 215.141C664.599 222.531 663.299 229.871 660.719 236.761C653.109 257.511 633.509 273.211 611.559 275.961C607.19 276.642 599.829 276.589 593.708 276.545C591.102 276.527 588.72 276.51 586.889 276.552C541.491 276.599 488.419 276.63 432.564 276.662C313.831 276.731 182.522 276.806 85.6188 277.072C82.4388 277.091 78.8688 276.921 75.7488 276.461C47.8288 272.971 24.6188 248.451 22.7088 220.381C22.4033 217.173 22.429 208.679 22.4438 203.803C22.4465 202.934 22.4488 202.18 22.4488 201.591C22.4239 186.916 22.3939 167.959 22.3638 149.001C22.3338 130.044 22.3038 111.086 22.2789 96.4115C22.3052 94.7882 22.2914 92.9333 22.2768 90.961C22.2302 84.6952 22.1747 77.2433 23.3688 72.2615C28.0688 45.7615 51.3588 24.4315 78.1288 21.9114C80.4588 21.7015 82.9189 21.5715 85.2488 21.5715C122.569 21.4814 310.469 21.0115 351.499 20.9015C364.96 20.8035 415.331 20.7121 467.696 20.6171C527.601 20.5084 590.115 20.3949 602.959 20.2615C621.639 20.0414 640.129 28.4415 652.179 42.8315C661.209 53.4115 666.579 66.9515 667.289 80.8315C667.427 85.9139 667.435 97.215 667.442 106.51C667.445 111.315 667.448 115.585 667.469 118.181C667.389 119.508 667.466 120.775 667.761 122.012C667.548 125.578 666.678 131.286 666.279 133.901L666.278 133.909L666.265 133.993L666.264 133.997C666.208 134.367 666.162 134.671 666.13 134.89C666.112 135.016 666.098 135.114 666.089 135.181C665.079 143.261 663.709 151.351 660.879 159.011C658.019 166.731 644.039 191.881 633.089 181.711C630.869 179.651 630.909 176.181 631.159 173.161C631.999 162.961 633.299 152.781 635.049 142.691L635.171 141.986C636.429 134.745 637.752 127.129 635.089 120.301C632.019 112.441 624.039 107.281 615.759 105.651C604.919 103.511 593.139 106.861 585.039 114.371C584.369 109.201 579.199 105.561 574.029 104.881C570.519 104.421 566.989 105.021 563.599 105.911C563.443 105.952 563.258 105.993 563.051 106.035C562.963 106.053 562.872 106.071 562.777 106.089L562.462 106.15C561.23 106.385 559.651 106.686 559.049 107.251C558.344 107.918 558.275 109.059 558.21 110.139C558.191 110.453 558.173 110.761 558.139 111.051C556.414 125.881 554.691 140.711 552.969 155.542L551.039 172.157C550.542 173.007 550.025 173.842 549.489 174.661C545.929 180.171 541.849 182.921 537.639 182.921C533.429 182.921 531.059 181.221 530.529 177.811C530.269 176.501 530.139 174.991 530.139 173.291C530.139 171.461 530.469 169.231 531.129 166.611C531.129 166.221 533.699 146.301 538.829 106.851C536.069 105.931 532.719 105.471 529.159 105.471C525.599 105.471 521.989 106.131 518.299 107.441C514.619 108.621 512.119 110.391 510.799 112.751V112.731L505.391 158.939C503.177 163.968 500.605 168.439 497.679 172.351C492.229 179.681 486.319 183.341 479.959 183.341C474.119 183.341 471.199 179.941 471.199 173.131C471.199 171.691 471.979 164.231 473.539 150.751C474.319 144.731 475.029 138.511 475.679 132.101C496.189 113.901 507.089 96.0414 508.389 78.5015C508.519 77.0615 508.579 75.6915 508.579 74.3815C508.579 58.4114 500.009 50.4315 482.879 50.4315C477.809 50.4315 473.459 51.4114 469.829 53.3715C461.909 57.4214 457.049 67.1815 455.229 82.6215C448.219 142.701 444.719 173.791 444.719 175.881C444.719 183.731 446.989 189.951 451.529 194.531C456.069 198.981 462.299 201.211 470.219 201.211V201.221C478.259 201.221 485.469 199.331 491.829 195.531C496.737 192.652 500.89 189.078 504.287 184.79C505.252 188.616 507.094 191.926 509.809 194.711C514.149 199.041 520.729 201.201 529.549 201.201C536.639 201.201 542.915 199.127 548.387 194.979L547.799 200.031H574.269L577.187 176.649L580.809 147.631C581.399 142.852 582.009 138.021 583.759 133.521C585.509 129.021 588.539 124.841 592.859 122.711C597.179 120.581 602.879 120.911 606.319 124.281C610.589 128.461 610.159 135.321 609.429 141.251C609.017 144.607 608.603 147.961 608.189 151.315L607.794 154.517L607.343 158.163L606.799 162.578C606.602 164.176 606.405 165.773 606.209 167.371C605.779 170.841 605.369 174.421 605.409 177.931L605.429 177.921C605.469 181.511 605.989 185.031 607.459 188.301C610.589 195.241 617.799 199.881 625.349 200.911C654.089 204.821 672.879 181.301 680.759 155.941C681.578 153.294 685.798 123.03 685.646 120.194C685.698 119.538 685.7 118.871 685.659 118.191C685.669 113.731 685.719 90.3514 685.739 85.3215C686.699 43.0715 654.189 6.17145 612.159 1.81146C608.027 1.25598 600.863 1.27905 594.924 1.29816C592.311 1.30658 589.934 1.31427 588.159 1.27148C516.369 1.10065 425.762 0.866698 335.276 0.633055C245.684 0.401671 156.21 0.170653 85.2388 0.00146349C76.4788 -0.0485243 67.6888 1.18146 59.3188 3.78149C30.2188 12.6114 7.27886 38.2314 1.74883 68.1415C0.179376 75.0507 0.18902 84.1182 0.19732 91.8682C0.199029 93.4508 0.200616 94.9784 0.188775 96.4214L0.148858 122.721C0.143732 131.434 0.115655 147.3 0.0878233 162.997C0.0606017 178.287 0.0337462 193.415 0.0288634 201.611C0.0427794 202.985 0.0317931 204.831 0.019586 206.882C-0.0120302 212.175 -0.051581 218.832 0.308771 222.241C1.99883 245.001 13.5688 266.681 31.2989 281.001C45.9788 293.042 64.9089 299.771 83.8888 299.901C233.909 300.161 453.979 300.441 603.329 300.441ZM145.079 71.4915C147.039 71.4915 148.489 72.0615 150.579 72.9814V72.9915C152.359 72.9915 154.139 67.1415 154.139 65.8315C154.139 59.5314 151.159 55.0914 146.459 52.6014C145.151 52.1248 142.417 53.3829 139.011 54.9496C134.63 56.9651 129.139 59.4915 124.149 59.4915C119.199 59.4915 112.149 57.9814 103.019 54.9614C94.0187 51.9415 87.1087 50.4315 82.2787 50.4315C74.4488 50.4315 67.9288 52.5314 62.7088 56.7314C57.6187 60.8015 55.0788 66.4415 55.0788 73.6614C55.0788 80.8815 57.5588 86.7214 62.5187 91.1815C67.5987 95.6415 74.0588 97.8715 82.2787 97.8715C90.4987 97.8715 98.3188 96.3614 105.759 93.3414C103.149 110.011 100.609 129.631 98.1287 152.211L96.1688 168.161C66.1587 184.181 51.1587 202.491 51.1587 223.101C51.1587 230.981 53.6988 238.071 58.7888 244.371C63.8787 250.801 70.5987 254.021 79.3388 254.021C88.0788 254.021 96.0287 251.001 103.209 244.961C110.509 239.061 115.009 229.801 116.709 217.201L123.169 171.121C125.649 170.071 129.429 168.561 134.519 166.591C135.516 166.18 136.52 165.764 137.532 165.343C138.652 174.629 142.601 182.599 149.379 189.251C157.629 197.221 168.769 201.201 182.779 201.201C196.789 201.201 208.709 196.181 218.529 186.121C224.408 180.107 228.551 172.926 230.958 164.581H238.816C239.809 174.194 243.786 182.418 250.749 189.251C258.999 197.221 270.139 201.201 284.149 201.201C298.159 201.201 310.079 196.181 319.899 186.121C329.849 175.941 334.829 162.421 334.829 145.571C334.829 134.471 330.769 125.071 322.649 117.361C314.66 109.652 304.641 105.802 292.594 105.801C276.876 105.802 263.918 110.693 253.699 120.491C247.431 126.493 243.111 133.806 240.739 142.431H233.347C232.644 132.688 228.622 124.334 221.279 117.361C213.29 109.652 203.271 105.802 191.223 105.801C175.506 105.802 162.548 110.693 152.329 120.491C144.447 128.037 139.647 137.658 137.923 149.353C134.253 151.085 130.118 152.961 125.519 154.981L135.299 86.0615C135.949 81.3315 137.249 77.7214 139.209 75.2314C141.169 72.7415 143.119 71.4915 145.079 71.4915ZM77.5688 84.1014C75.4787 82.6614 74.4388 80.9515 74.4388 78.9814C74.4388 75.7015 76.0688 74.0615 79.3288 74.0615C80.3787 74.0615 83.5688 74.8414 88.9188 76.4214C94.2587 77.8715 99.4787 79.1815 104.569 80.3614C97.5187 84.3015 91.6487 86.2715 87.3487 86.2715C83.0488 86.2715 79.7888 85.5414 77.5688 84.1014ZM66.0287 221.151C66.0287 208.541 75.3487 196.601 94.0087 185.311L94.0187 185.321L89.3188 222.141C88.7888 226.471 87.3587 229.621 85.0087 231.591C82.6688 233.561 79.7287 234.541 76.5987 234.541C73.4688 234.541 70.8587 233.101 68.7687 230.211C66.9388 227.711 66.0287 224.691 66.0287 221.151ZM495.729 76.9315C495.729 87.4114 489.759 99.2515 477.819 112.471H477.809L478.389 106.581C478.649 104.621 479.169 99.5215 479.949 91.2715C480.859 83.0215 481.769 77.0615 482.679 73.4015C483.719 69.7415 485.729 67.7715 488.719 67.5115C493.389 67.5115 495.729 70.6514 495.729 76.9315ZM518.889 55.1515C521.919 52.0015 525.599 50.4315 529.949 50.4315C534.299 50.4315 537.979 52.0015 541.009 55.1515C544.169 58.1614 545.749 61.8315 545.749 66.1614C545.749 70.4915 544.169 74.1514 541.009 77.1714C537.979 80.1815 534.299 81.6915 529.949 81.6915C525.599 81.6915 521.919 80.1815 518.889 77.1714C515.859 74.1614 514.349 70.4915 514.349 66.1614C514.349 61.8315 515.859 58.1714 518.889 55.1515ZM400.919 105.281C410.309 105.281 418.389 109.151 425.169 116.881C431.949 124.611 435.339 133.661 435.339 144.011C435.339 145.451 435.269 146.961 435.139 148.531C433.709 165.701 427.969 178.801 417.929 187.851C407.889 196.761 394.779 201.221 378.609 201.221C372.089 200.961 366.419 199.781 361.589 197.681C356.759 195.581 353.179 192.961 350.829 189.821C346.399 184.051 344.179 178.941 344.179 174.491C344.179 170.042 344.829 162.561 346.139 152.471C348.879 131.761 352.789 98.2815 357.879 52.0115C360.619 50.9615 364.269 50.4415 368.829 50.4415C379.259 50.4415 384.479 53.4515 384.479 59.4814L377.829 111.771C383.959 107.451 391.649 105.281 400.909 105.281H400.919ZM370.599 173.101C370.599 176.111 371.709 178.671 373.919 180.771C376.269 182.741 379.459 183.721 383.499 183.721C390.149 183.721 395.629 180.641 399.929 174.481C405.149 167.011 407.749 157.311 407.749 145.391C407.749 139.621 406.449 134.511 403.839 130.061C401.229 125.601 397.189 123.381 391.709 123.381C384.279 123.381 378.599 127.841 374.689 136.751L373.129 148.551C371.429 161.791 370.589 169.981 370.589 173.121L370.599 173.101ZM273.139 132.251C277.328 125.203 282.496 121.673 288.654 121.671C294.942 121.673 299.59 124.413 302.599 129.901C305.609 135.131 307.119 142.171 307.119 151.061C307.119 159.951 304.959 167.851 300.639 174.771C296.449 181.691 291.199 185.151 284.919 185.151C278.639 185.151 273.919 182.661 270.779 177.701C267.769 172.731 266.259 166.471 266.259 158.891C266.659 148.181 268.949 139.301 273.139 132.251ZM187.284 121.671C181.126 121.673 175.958 125.203 171.769 132.251C167.579 139.301 165.289 148.181 164.889 158.891C164.889 166.471 166.399 172.731 169.409 177.701C172.549 182.661 177.269 185.151 183.549 185.151C189.829 185.151 195.079 181.691 199.269 174.771C203.589 167.851 205.749 159.951 205.749 151.061C205.749 142.171 204.239 135.131 201.229 129.901C198.22 124.413 193.572 121.673 187.284 121.671ZM186.599 164.571C192.709 164.571 197.669 159.621 197.669 153.501C197.669 147.391 192.709 142.431 186.599 142.431C180.489 142.431 175.529 147.391 175.529 153.501C175.529 159.611 180.489 164.571 186.599 164.571ZM297.339 153.501C297.339 159.621 292.569 164.571 286.689 164.571C280.809 164.571 276.039 159.611 276.039 153.501C276.039 147.391 280.809 142.431 286.689 142.431C292.569 142.431 297.339 147.391 297.339 153.501ZM277.899 230.511C281.199 228.371 282.149 223.961 280.009 220.651H280.019C277.879 217.351 273.459 216.401 270.149 218.541C255.689 227.891 243.089 232.102 231.879 232.102C220.669 232.102 209.689 227.981 198.149 218.921C195.049 216.491 190.569 217.021 188.129 220.121C185.689 223.221 186.229 227.701 189.329 230.131C202.759 240.681 216.879 246.361 231.869 246.361C246.859 246.361 262.029 240.771 277.899 230.511ZM160.919 94.6815C163.879 97.2515 168.369 96.9515 170.959 94.0215C180.579 83.1215 196.879 83.1215 206.499 94.0215C209.089 96.9515 213.579 97.2515 216.539 94.6815C219.499 92.1115 219.799 87.6515 217.209 84.7215C201.919 67.3915 175.539 67.3915 160.249 84.7215C157.659 87.6515 157.959 92.1115 160.919 94.6815Z" fill="#00BBAA"/>
</svg>
